<?xml version="1.0" encoding="utf-8"?>
<svg xmlns="http://www.w3.org/2000/svg" viewBox="0 0 256 256" xmlns:bx="https://boxy-svg.com">
  <defs>
    <bx:grid x="0" y="0" width="25" height="25"/>
    <style bx:fonts="Atma">@import url(https://fonts.googleapis.com/css2?family=Atma%3Aital%2Cwght%400%2C300%3B0%2C400%3B0%2C500%3B0%2C600%3B0%2C700&amp;display=swap);</style>
  </defs>
  <polygon style="stroke: rgb(0, 0, 0); fill: rgb(69, 58, 98);" points="32.85 205.134 67.414 204.905 113.76 134.435 65.803 60.986 32.555 61.379 82.555 135.22"/>
  <path style="stroke: rgb(0, 0, 0); fill: rgb(143, 78, 139);" d="M 152.753 87.705 L 236.041 81.743 C 236.45 81.743 224.953 100.137 224.951 100.134 L 159.76 105.134 L 152.753 87.705 Z"/>
  <polygon style="stroke: rgb(0, 0, 0); fill: rgb(94, 80, 134);" points="96.714 205.134 129.314 205.69 155.63 165.071 181.553 205.69 213.76 205.69 141.097 60.986 100.249 61.771 130.099 134.827"/>
  <path style="stroke: rgb(0, 0, 0); fill: rgb(254, 227, 212);" d="M 146.13433333333333 40.971 C 153.34799999999998 44.60733333333334 156.97400000000002 50.83266666666666 159.12033333333332 58.159166666666664 C 161.26666666666665 65.48566666666666 161.9333333333333 73.91333333333333 156.95183333333333 79.57733333333333 C 151.97033333333334 85.24133333333333 141.3406666666667 88.14166666666667 130.93983333333335 89.81516666666668 C 120.539 91.48866666666667 110.367 91.93533333333335 103.50316666666667 88.54616666666668 C 96.63933333333334 85.157 93.08366666666666 77.932 91.97683333333333 70.15283333333333 C 90.87 62.37366666666666 92.212 54.04033333333333 96.84366666666666 48.12916666666666 C 101.47533333333332 42.217999999999996 109.39666666666666 38.729000000000006 118.758 37.50816666666667 C 128.11933333333334 36.28733333333333 138.92066666666668 37.334666666666664 146.13433333333333 40.971" bx:d="M 149.722 38.382 U 160.6 57.058 U 162.6 82.341 U 130.711 91.042 U 100.195 92.382 U 89.528 70.707 U 93.554 45.707 U 117.318 35.24 Z 1@deae05ef"/>
  <polygon style="stroke: rgb(0, 0, 0); fill: rgb(143, 78, 139); transform-box: fill-box; transform-origin: 50% 50%;" points="145.953 131.259 210.244 94.785 209.183 115.036 154.696 145.597" transform="matrix(0.897971, 0.440055, -0.440055, 0.897971, 0, 0)"/>
  <path style="stroke: rgb(0, 0, 0); fill: rgb(210, 39, 39);" d="M 102.48683333333334 62.788000000000004 C 117.38 58.370000000000005 145 49.534 164.53016666666667 44.022 C 184.06033333333335 38.51 195.50066666666666 36.322 199.34849999999997 33.031666666666666 C 203.1963333333333 29.741333333333333 199.45166666666668 25.348666666666663 196.08816666666667 23.52733333333333 C 192.72466666666665 21.706 189.74233333333333 22.456 187.2398333333333 22.985666666666663 C 184.73733333333334 23.51533333333333 182.71466666666666 23.82466666666667 180.00133333333335 24.401833333333332 C 177.288 24.979 173.88400000000001 25.824 170.72866666666664 26.638500000000004 C 167.57333333333332 27.453000000000003 164.66666666666666 28.237 161.71216666666666 28.795666666666666 C 158.75766666666667 29.354333333333333 155.7553333333333 29.68766666666667 153.15533333333332 28.373166666666673 C 150.55533333333332 27.058666666666667 148.35766666666666 24.096333333333334 145.85883333333334 21.9255 C 143.35999999999999 19.754666666666665 140.55999999999997 18.375333333333334 137.71 17.2215 C 134.85999999999999 16.067666666666664 131.96 15.139333333333333 128.186 14.835833333333333 C 124.41199999999999 14.532333333333334 119.76400000000001 14.853666666666667 115.40783333333333 15.674166666666666 C 111.05166666666666 16.494666666666667 106.98733333333332 17.814333333333334 103.25366666666666 19.640833333333333 C 99.52 21.467333333333332 96.117 23.800666666666668 93.42316666666666 26.233999999999998 C 90.72933333333333 28.667333333333335 88.74466666666667 31.200666666666667 86.91116666666666 33.730333333333334 C 85.07766666666667 36.26 83.39533333333333 38.786 82.28249999999998 40.852666666666664 C 81.16966666666666 42.91933333333333 80.62633333333333 44.526666666666664 80.09666666666665 46.30566666666667 C 79.567 48.084666666666664 79.051 50.035333333333334 78.98549999999999 52.37916666666666 C 78.92 54.72299999999999 79.30499999999999 57.46 80.09266666666666 59.99666666666667 C 80.88033333333333 62.53333333333334 82.07066666666667 64.86966666666667 83.749 66.03783333333334 C 85.42733333333332 67.206 87.59366666666666 67.206 102.48683333333334 62.788000000000004" bx:d="M 89.76 67.206 U 172.62 40.698 U 206.941 34.134 U 195.707 20.956 U 186.76 23.206 U 180.692 24.134 U 170.48 26.669 U 161.76 29.021 U 152.753 30.021 U 146.16 21.134 U 137.76 16.996 U 129.06 14.211 U 115.116 15.175 U 102.923 19.134 U 92.714 26.134 U 86.76 33.734 U 81.713 41.312 U 80.083 46.134 U 78.535 51.986 U 79.69 60.197 U 83.261 67.206 Z 1@2dac8eab"/>
  <path style="stroke: rgb(0, 0, 0); fill: none;" d="M 105.923 71.911 C 106.444 74.708 117.637 71.689 117.099 68.197"/>
  <path style="stroke: rgb(0, 0, 0); fill: none;" d="M 138.76 64.023 C 140.3 66.719 151.111 64.52 148.52 59.986"/>
  <path style="stroke: rgb(0, 0, 0); fill: none;" d="M 118.099 82.305 C 122.966 86.606 144.221 76.092 140.76 75.206"/>
  <text style="font-family: Atma; font-size: 28px; font-weight: 500; white-space: pre;" transform="matrix(1.552195, 0, 0, 1.477304, -148.606384, -275.341583)" x="129.083" y="350.359">HasChor</text>
</svg>