<?xml version="1.0" encoding="utf-8"?>
<svg xmlns="http://www.w3.org/2000/svg" viewBox="0 0 500 500" xmlns:bx="https://boxy-svg.com">
  <defs>
    <bx:grid x="0" y="0" width="25" height="25"/>
    <style bx:fonts="Atma">@import url(https://fonts.googleapis.com/css2?family=Atma%3Aital%2Cwght%400%2C300%3B0%2C400%3B0%2C500%3B0%2C600%3B0%2C700&amp;display=swap);</style>
  </defs>
  <polygon style="stroke: rgb(0, 0, 0); fill: rgb(69, 58, 98);" points="146.798 299.444 181.362 299.215 227.708 228.745 179.751 155.296 146.503 155.689 196.503 229.53"/>
  <path style="stroke: rgb(0, 0, 0); fill: rgb(143, 78, 139);" d="M 266.701 182.015 L 349.989 176.053 C 350.398 176.053 338.901 194.447 338.899 194.444 L 273.708 199.444 L 266.701 182.015 Z"/>
  <polygon style="stroke: rgb(0, 0, 0); fill: rgb(94, 80, 134);" points="210.662 299.444 243.262 300 269.578 259.381 295.501 300 327.708 300 255.045 155.296 214.197 156.081 244.047 229.137"/>
  <path style="stroke: rgb(0, 0, 0); fill: rgb(254, 227, 212);" d="M 260.08233333333334 135.28099999999998 C 267.296 138.91733333333335 270.922 145.14266666666666 273.0683333333333 152.46916666666667 C 275.2146666666667 159.79566666666668 275.8813333333333 168.22333333333333 270.89983333333333 173.88733333333334 C 265.91833333333335 179.55133333333333 255.28866666666667 182.45166666666668 244.88783333333333 184.12516666666667 C 234.487 185.79866666666666 224.31499999999997 186.24533333333332 217.45116666666664 182.85616666666667 C 210.5873333333333 179.467 207.03166666666667 172.242 205.92483333333334 164.46283333333335 C 204.81799999999998 156.68366666666665 206.16 148.35033333333334 210.79166666666666 142.43916666666667 C 215.42333333333332 136.528 223.34466666666665 133.03900000000002 232.70600000000002 131.81816666666668 C 242.06733333333332 130.59733333333335 252.86866666666666 131.64466666666667 260.08233333333334 135.28099999999998" bx:d="M 263.67 132.692 U 274.548 151.368 U 276.548 176.651 U 244.659 185.352 U 214.143 186.692 U 203.476 165.017 U 207.502 140.017 U 231.266 129.55 Z 1@e24dca90"/>
  <polygon style="stroke: rgb(0, 0, 0); fill: rgb(143, 78, 139); transform-box: fill-box; transform-origin: 50% 50%;" points="259.901 225.569 324.192 189.095 323.131 209.346 268.644 239.907" transform="matrix(0.897971, 0.440055, -0.440055, 0.897971, 0, 0)"/>
  <path style="stroke: rgb(0, 0, 0); fill: rgb(210, 39, 39);" d="M 216.43483333333333 157.09799999999998 C 231.32799999999997 152.67999999999998 258.948 143.84400000000002 278.4781666666667 138.332 C 298.0083333333333 132.82000000000002 309.44866666666667 130.63199999999998 313.2965 127.34166666666665 C 317.14433333333335 124.05133333333333 313.39966666666663 119.65866666666666 310.0361666666667 117.83733333333333 C 306.67266666666666 116.016 303.69033333333334 116.766 301.18783333333334 117.29566666666666 C 298.68533333333335 117.82533333333333 296.66266666666667 118.13466666666666 293.9493333333333 118.71183333333335 C 291.236 119.289 287.832 120.134 284.6766666666667 120.94850000000001 C 281.52133333333336 121.76299999999999 278.61466666666666 122.54700000000001 275.6601666666667 123.10566666666666 C 272.7056666666667 123.66433333333333 269.7033333333334 123.99766666666666 267.10333333333335 122.68316666666665 C 264.50333333333333 121.36866666666667 262.3056666666667 118.40633333333334 259.8068333333334 116.2355 C 257.308 114.06466666666667 254.508 112.68533333333333 251.65800000000002 111.5315 C 248.808 110.37766666666666 245.90800000000002 109.44933333333334 242.13400000000001 109.14583333333333 C 238.36 108.84233333333333 233.712 109.16366666666666 229.35583333333332 109.98416666666667 C 224.99966666666668 110.80466666666666 220.93533333333335 112.12433333333333 217.20166666666668 113.95083333333332 C 213.468 115.77733333333333 210.06500000000003 118.11066666666666 207.37116666666668 120.544 C 204.67733333333334 122.97733333333333 202.69266666666667 125.51066666666668 200.85916666666665 128.04033333333334 C 199.02566666666667 130.57000000000002 197.34333333333333 133.096 196.2305 135.16266666666667 C 195.11766666666668 137.22933333333333 194.57433333333333 138.83666666666667 194.04466666666667 140.61566666666667 C 193.51500000000001 142.39466666666667 192.99900000000002 144.34533333333331 192.93349999999998 146.68916666666667 C 192.86800000000002 149.033 193.25300000000001 151.77 194.04066666666668 154.30666666666667 C 194.82833333333335 156.84333333333333 196.0186666666667 159.17966666666666 197.697 160.3478333333333 C 199.37533333333332 161.516 201.54166666666666 161.516 216.43483333333333 157.09799999999998" bx:d="M 203.708 161.516 U 286.568 135.008 U 320.889 128.444 U 309.655 115.266 U 300.708 117.516 U 294.64 118.444 U 284.428 120.979 U 275.708 123.331 U 266.701 124.331 U 260.108 115.444 U 251.708 111.306 U 243.008 108.521 U 229.064 109.485 U 216.871 113.444 U 206.662 120.444 U 200.708 128.044 U 195.661 135.622 U 194.031 140.444 U 192.483 146.296 U 193.638 154.507 U 197.209 161.516 Z 1@1fa320ca"/>
  <path style="stroke: rgb(0, 0, 0); fill: none;" d="M 219.871 166.221 C 220.392 169.018 231.585 165.999 231.047 162.507"/>
  <path style="stroke: rgb(0, 0, 0); fill: none;" d="M 252.708 158.333 C 254.248 161.029 265.059 158.83 262.468 154.296"/>
  <path style="stroke: rgb(0, 0, 0); fill: none;" d="M 232.047 176.615 C 236.914 180.916 258.169 170.402 254.708 169.516"/>
  <text style="font-family: Atma; font-size: 28px; font-weight: 500;" transform="matrix(1.552195, 0, 0, 1.477304, -34.658539, -172.031296)" x="129.083" y="350.359">HasChor</text>
</svg>