<?xml version="1.0" encoding="utf-8"?>
<svg xmlns="http://www.w3.org/2000/svg" viewBox="0 0 220 220" xmlns:bx="https://boxy-svg.com">
  <defs>
    <bx:grid x="0" y="0" width="25" height="25"/>
  </defs>
  <polygon style="stroke: rgb(0, 0, 0); fill: rgb(69, 58, 98);" points="10.803 203.071 45.367 202.842 91.713 132.372 43.756 58.923 10.508 59.316 60.508 133.157"/>
  <path style="stroke: rgb(0, 0, 0); fill: rgb(143, 78, 139);" d="M 130.706 85.642 L 213.994 79.68 C 214.403 79.68 202.906 98.074 202.904 98.071 L 137.713 103.071 L 130.706 85.642 Z"/>
  <polygon style="stroke: rgb(0, 0, 0); fill: rgb(94, 80, 134);" points="74.667 203.071 107.267 203.627 133.583 163.008 159.506 203.627 191.713 203.627 119.05 58.923 78.202 59.708 108.052 132.764"/>
  <path style="stroke: rgb(0, 0, 0); fill: rgb(254, 227, 212);" d="M 124.08733333333333 38.908 C 131.30100000000002 42.544333333333334 134.927 48.769666666666666 137.07333333333332 56.09616666666667 C 139.21966666666665 63.422666666666665 139.88633333333334 71.85033333333334 134.90483333333333 77.51433333333334 C 129.92333333333332 83.17833333333334 119.29366666666665 86.07866666666666 108.89283333333334 87.75216666666667 C 98.492 89.42566666666666 88.32 89.87233333333334 81.45616666666666 86.48316666666666 C 74.59233333333333 83.09400000000001 71.03666666666666 75.86900000000001 69.92983333333333 68.08983333333335 C 68.823 60.31066666666667 70.165 51.97733333333334 74.79666666666667 46.06616666666667 C 79.42833333333334 40.155 87.34966666666666 36.666 96.711 35.445166666666665 C 106.07233333333333 34.224333333333334 116.87366666666667 35.27166666666667 124.08733333333333 38.908" bx:d="M 127.675 36.319 U 138.553 54.995 U 140.553 80.278 U 108.664 88.979 U 78.148 90.319 U 67.481 68.644 U 71.507 43.644 U 95.271 33.177 Z 1@55344976"/>
  <polygon style="stroke: rgb(0, 0, 0); fill: rgb(143, 78, 139); transform-box: fill-box; transform-origin: 50% 50%;" points="123.906 129.196 188.197 92.722 187.136 112.973 132.649 143.534" transform="matrix(0.897971, 0.440055, -0.440055, 0.897971, 0, 0)"/>
  <path style="stroke: rgb(0, 0, 0); fill: rgb(210, 39, 39);" d="M 80.43983333333334 60.725 C 95.33300000000001 56.306999999999995 122.95300000000002 47.471000000000004 142.48316666666668 41.958999999999996 C 162.01333333333335 36.446999999999996 173.45366666666666 34.25899999999999 177.3015 30.968666666666664 C 181.14933333333332 27.67833333333333 177.40466666666666 23.285666666666668 174.04116666666667 21.464333333333332 C 170.67766666666668 19.643 167.69533333333334 20.393 165.1928333333333 20.922666666666668 C 162.69033333333334 21.452333333333332 160.6676666666667 21.761666666666667 157.95433333333332 22.338833333333337 C 155.241 22.916 151.837 23.761 148.68166666666664 24.5755 C 145.52633333333333 25.39 142.61966666666666 26.173999999999996 139.66516666666666 26.732666666666663 C 136.71066666666664 27.29133333333333 133.70833333333334 27.624666666666666 131.10833333333332 26.310166666666664 C 128.50833333333333 24.995666666666665 126.31066666666668 22.03333333333333 123.81183333333333 19.8625 C 121.31299999999999 17.691666666666666 118.51299999999999 16.31233333333333 115.663 15.158499999999998 C 112.81299999999999 14.004666666666665 109.91300000000001 13.076333333333332 106.139 12.772833333333333 C 102.36500000000001 12.469333333333333 97.717 12.790666666666667 93.36083333333333 13.611166666666668 C 89.00466666666667 14.431666666666667 84.94033333333334 15.751333333333335 81.20666666666666 17.577833333333334 C 77.473 19.404333333333337 74.07000000000001 21.73766666666667 71.37616666666666 24.171000000000003 C 68.68233333333333 26.604333333333333 66.69766666666666 29.137666666666664 64.86416666666666 31.667333333333332 C 63.03066666666666 34.197 61.34833333333333 36.723000000000006 60.235499999999995 38.78966666666667 C 59.12266666666667 40.85633333333333 58.57933333333333 42.46366666666666 58.04966666666667 44.24266666666667 C 57.52 46.02166666666667 57.004 47.97233333333333 56.9385 50.31616666666667 C 56.873 52.660000000000004 57.258 55.397 58.04566666666667 57.93366666666666 C 58.833333333333336 60.470333333333336 60.023666666666664 62.80666666666667 61.702 63.97483333333334 C 63.38033333333333 65.143 65.54666666666667 65.143 80.43983333333334 60.725" bx:d="M 67.713 65.143 U 150.573 38.635 U 184.894 32.071 U 173.66 18.893 U 164.713 21.143 U 158.645 22.071 U 148.433 24.606 U 139.713 26.958 U 130.706 27.958 U 124.113 19.071 U 115.713 14.933 U 107.013 12.148 U 93.069 13.112 U 80.876 17.071 U 70.667 24.071 U 64.713 31.671 U 59.666 39.249 U 58.036 44.071 U 56.488 49.923 U 57.643 58.134 U 61.214 65.143 Z 1@47386568"/>
  <path style="stroke: rgb(0, 0, 0); fill: none;" d="M 83.876 69.848 C 84.397 72.645 95.59 69.626 95.052 66.134"/>
  <path style="stroke: rgb(0, 0, 0); fill: none;" d="M 116.713 61.96 C 118.253 64.656 129.064 62.457 126.473 57.923"/>
  <path style="stroke: rgb(0, 0, 0); fill: none;" d="M 96.052 80.242 C 100.919 84.543 122.174 74.029 118.713 73.143"/>
</svg>